<?xml version="1.0" encoding="UTF-8" standalone="no"?>
<svg
   width="128"
   height="128"
   viewBox="0 0 33.866665 33.866667"
   version="1.1"
   id="svg8"
   xmlns="http://www.w3.org/2000/svg"
   xmlns:svg="http://www.w3.org/2000/svg"
   xmlns:rdf="http://www.w3.org/1999/02/22-rdf-syntax-ns#"
   xmlns:cc="http://creativecommons.org/ns#"
   xmlns:dc="http://purl.org/dc/elements/1.1/">
  <defs
     id="defs2">
    <symbol
       id="icon-bag">
      <title
         id="title14196">bag</title>
      <path
         d="M28 10h-4v-0.281c0-4.281-3.438-7.719-7.719-7.719h-0.5c-4.281 0-7.781 3.438-7.781 7.719v0.281h-4l-2 20h28l-2-20zM10 9.719c0-3.169 2.613-5.719 5.781-5.719h0.5c3.169 0 5.719 2.55 5.719 5.719v0.281h-12v-0.281zM4.237 28l1.556-16h2.206v2.269c-0.6 0.344-1 0.994-1 1.731 0 1.106 0.894 2 2 2s2-0.894 2-2c0-0.738-0.4-1.387-1-1.731v-2.269h12v2.269c-0.6 0.344-1 0.994-1 1.731 0 1.106 0.894 2 2 2s2-0.894 2-2c0-0.738-0.4-1.387-1-1.731v-2.269h2.212l1.556 16h-23.531z"
         id="path14198" />
    </symbol>
    <symbol
       id="shopping-bag">
      <title
         id="shopping-bag-title">Shopping Bag</title>
      <path
         d="M352 160v-32C352 57.42 294.579 0 224 0 153.42 0 96 57.42 96 128v32H0v272c0 44.183 35.817 80 80 80h288c44.183 0 80-35.817 80-80V160h-96zm-192-32c0-35.29 28.71-64 64-64s64 28.71 64 64v32H160v-32zm160 120c-13.255 0-24-10.745-24-24s10.745-24 24-24 24 10.745 24 24-10.745 24-24 24zm-192 0c-13.255 0-24-10.745-24-24s10.745-24 24-24 24 10.745 24 24-10.745 24-24 24z"
         id="path38924" />
    </symbol>
  </defs>
  <metadata
     id="metadata5">
    <rdf:RDF>
      <cc:Work
         rdf:about="">
        <dc:format>image/svg+xml</dc:format>
        <dc:type
           rdf:resource="http://purl.org/dc/dcmitype/StillImage" />
        <cc:license
           rdf:resource="http://creativecommons.org/publicdomain/zero/1.0/" />
      </cc:Work>
      <cc:License
         rdf:about="http://creativecommons.org/publicdomain/zero/1.0/">
        <cc:permits
           rdf:resource="http://creativecommons.org/ns#Reproduction" />
        <cc:permits
           rdf:resource="http://creativecommons.org/ns#Distribution" />
        <cc:permits
           rdf:resource="http://creativecommons.org/ns#DerivativeWorks" />
      </cc:License>
    </rdf:RDF>
  </metadata>
  <rect
     transform="rotate(14.999999)"
     ry="2.6458333"
     rx="2.6458333"
     y="-2.3367383"
     x="6.4285994"
     height="28.620827"
     width="28.620827"
     id="rect1608-1-0-6"
     style="display:inline;fill:#fbce2f;fill-opacity:1;stroke:none;stroke-width:0.529164;stroke-linecap:round;stroke-linejoin:round" />
  <g
     id="g59647"
     transform="translate(-35.189582,-0.98273679)">
    <path
       id="path57469"
       style="fill:#1a1a1a;fill-opacity:1;stroke:none;stroke-width:0.264583"
       d="m 52.122914,8.9202371 c -1.458908,0 -2.645605,1.1866959 -2.645605,2.6456059 v 0.661516 h -1.984546 v 5.622651 c 0,0.913277 0.740285,1.653559 1.653561,1.653559 h 5.953181 c 0.913279,0 1.653563,-0.740282 1.653563,-1.653559 v -5.622651 h -1.984546 v -0.661516 c 0,-1.45891 -1.186715,-2.6456059 -2.645608,-2.6456059 z m 0,1.3230289 c 0.729457,0 1.32303,0.593123 1.32303,1.322577 v 0.661516 h -2.646057 v -0.661516 c 0,-0.729454 0.593573,-1.322577 1.323027,-1.322577 z m 0,2.881636 c 0.317002,0 0.572892,0.255891 0.572892,0.572891 0,0.317001 -0.25589,0.576961 -0.572892,0.576961 -0.31318,0 -0.57289,-0.25996 -0.57289,-0.576961 0,-0.317 0.25971,-0.572891 0.57289,-0.572891 z m 0,1.52786 c 0,0 2.520811,0.04204 2.520811,0.29029 0,0.248253 -1.707369,0.534908 -1.707369,0.534908 0,0 0.6453,3.108749 0.404688,3.200412 -0.236797,0.09166 -1.21813,-1.982284 -1.21813,-1.982284 0,0 -0.977716,2.073947 -1.214508,1.982284 -0.240616,-0.09166 0.404684,-3.200412 0.404684,-3.200412 0,0 -1.710985,-0.286655 -1.710985,-0.534908 0,-0.248253 2.520809,-0.29029 2.520809,-0.29029 z" />
    <path
       id="path57548"
       style="display:inline;fill:#1a1a1a;fill-opacity:1;stroke:none;stroke-width:0.396878;stroke-linecap:round;stroke-linejoin:round;stop-color:#000000"
       d="m 50.98098,20.565641 c -0.195158,0.0195 -0.331234,0.118181 -0.428817,0.293822 -0.409835,0.722099 -0.68358,1.932104 -0.859224,3.590968 -0.253709,-0.64403 -0.468045,-1.36593 -0.624173,-2.244154 -0.05855,-0.390321 -0.234553,-0.567457 -0.527291,-0.547936 -0.195165,0.0195 -0.350986,0.136996 -0.487587,0.390705 l -1.424633,2.733326 c -0.234188,-0.9563 -0.468715,-2.108904 -0.66388,-3.475025 -0.03903,-0.331776 -0.233627,-0.488042 -0.565404,-0.468529 -0.175641,0 -0.312182,0.07823 -0.409765,0.195352 -0.07806,0.117089 -0.117525,0.273818 -0.117525,0.449459 0.370808,2.459029 0.741873,4.117176 1.073639,4.97591 0.117091,0.312256 0.27224,0.468977 0.447884,0.449461 0.273225,-0.0195 0.605488,-0.390795 0.995812,-1.132404 0.195165,-0.429352 0.507699,-1.053967 0.937051,-1.893154 0.351288,1.249026 0.838695,2.165988 1.443691,2.790505 0.156128,0.175614 0.332587,0.254569 0.50823,0.235053 0.156128,-0.0195 0.272937,-0.09844 0.350994,-0.235053 0.05855,-0.117097 0.09735,-0.272698 0.07783,-0.428826 -0.03903,-0.604999 0.02016,-1.424885 0.176284,-2.498268 0.175644,-1.092903 0.389525,-1.893302 0.643237,-2.361686 0.03903,-0.09758 0.05878,-0.194199 0.05878,-0.311288 0,-0.156136 -0.07823,-0.274066 -0.19535,-0.371649 -0.117091,-0.09754 -0.253632,-0.156102 -0.409757,-0.136589 z m 2.5761,0.703583 c -0.624511,0 -1.132324,0.331136 -1.542164,0.975169 -0.331768,0.565962 -0.506639,1.170392 -0.506639,1.853454 0,0.507421 0.09661,0.936755 0.31129,1.288047 0.234186,0.409837 0.586193,0.664763 1.054582,0.762344 0.117091,0.0195 0.233897,0.03813 0.350996,0.03813 0.644028,0 1.15184,-0.331137 1.542153,-0.97517 0.331777,-0.565967 0.506648,-1.170387 0.506648,-1.853443 0,-0.507423 -0.09661,-0.936768 -0.31129,-1.288055 -0.234194,-0.409837 -0.586199,-0.664766 -1.054583,-0.76235 -0.117095,-0.0195 -0.233896,-0.03812 -0.350993,-0.03812 z m 4.099203,0 c -0.62452,0 -1.132333,0.331136 -1.542167,0.975169 -0.331779,0.565962 -0.508232,1.170392 -0.508232,1.853454 0,0.507421 0.09821,0.936755 0.31288,1.288047 0.234193,0.409837 0.584604,0.664763 1.052991,0.762344 0.117099,0.0195 0.235495,0.03813 0.352593,0.03813 0.644026,0 1.150249,-0.331137 1.540576,-0.97517 0.331768,-0.565967 0.508226,-1.170387 0.508226,-1.853443 0,-0.507423 -0.09821,-0.936768 -0.312883,-1.288055 -0.23419,-0.409837 -0.584604,-0.664766 -1.052988,-0.76235 -0.117097,-0.0195 -0.233899,-0.03812 -0.350996,-0.03812 z m -3.962618,1.111758 c 0.156129,0.03903 0.293122,0.175101 0.390705,0.428812 0.07807,0.195165 0.117526,0.409954 0.117526,0.605113 -0.0195,0.13661 -0.03927,0.312407 -0.05879,0.468535 -0.09758,0.429352 -0.254984,0.762077 -0.489175,0.976757 -0.195162,0.17562 -0.369567,0.233921 -0.525701,0.214408 -0.156125,-0.03903 -0.293121,-0.175112 -0.390705,-0.428824 C 52.659465,24.450627 52.62,24.235838 52.62,24.040673 c 0,-0.156128 0.02016,-0.331917 0.0397,-0.468527 0.05855,-0.273227 0.175352,-0.527693 0.350996,-0.781402 0.214678,-0.312255 0.448741,-0.448794 0.682938,-0.409762 z m 4.099207,0 c 0.156127,0.03903 0.291525,0.175101 0.389106,0.428812 0.07807,0.195165 0.117525,0.409954 0.117525,0.605113 -0.0195,0.13661 -0.03927,0.312407 -0.05879,0.468535 -0.09758,0.429352 -0.253391,0.762077 -0.487584,0.976757 -0.19516,0.17562 -0.371157,0.233921 -0.527292,0.214408 -0.156127,-0.03903 -0.293121,-0.175112 -0.390705,-0.428824 -0.07806,-0.195156 -0.115913,-0.409945 -0.115934,-0.60511 0,-0.156128 0.01863,-0.331917 0.03812,-0.468527 0.05854,-0.273227 0.175351,-0.527693 0.350997,-0.781402 0.214681,-0.312255 0.450329,-0.448794 0.684522,-0.409762 z" />
  </g>
</svg>
